<?xml version="1.0" encoding="UTF-8"?>
<svg id="Lag_2" xmlns="http://www.w3.org/2000/svg" xmlns:xlink="http://www.w3.org/1999/xlink" viewBox="0 0 923.386 314.773">
  <defs>
    <clipPath id="clippath">
      <rect width="923.386" height="314.773" style="fill:none;"/>
    </clipPath>
  </defs>
  <g id="Components">
    <g id="_6cd1ecf8-f189-4a10-92a1-224afe44c986_4">
      <g style="clip-path:url(#clippath);">
        <path d="M131.9217,313.305c1.838-.674,3.492-2.264,5.141-6.366l11.445-28.399c.49-1.221.431-2.202-.122-3.304l-.796-1.712,5.997-2.692,15.18,36.169c1.711,4.04,3.304,5.63,4.711,6.304v.856h-11.14v-.856c2.022-.674,1.166-2.264-.549-6.304l-3.673-8.814h-16.339l-3.551,8.752c-1.651,4.102-1.285,5.875.798,6.366v.856h-7.102v-.856ZM157.6897,297.209l-7.895-18.911-7.651,18.911h15.546Z"/>
        <path d="M193.8129,314.1609v-.856c2.017-.675,2.446-2.511,2.446-6.916v-27.295c0-4.407-.429-6.245-2.446-6.916v-.858h15.299c17.625,0,23.377,11.569,23.439,20.564.061,13.281-8.628,22.277-22.093,22.277h-16.645ZM225.3289,294.8829c0-12.547-6.487-22.583-20.134-22.583h-2.449v36.413c0,2.877.612,4.47,3.979,4.47h3.304c9.853,0,15.3-5.204,15.3-18.3"/>
        <path d="M250.2505,272.1774v-.858h11.263v.858c-2.019.673-1.225,2.265.368,6.363l11.259,28.584,11.077-28.584c1.592-4.098,1.166-5.875-.917-6.363v-.858h7.099v.858c-1.836.673-3.426,2.265-5.016,6.363l-13.835,35.62h-2.326l-14.38-35.62c-1.593-4.098-3.181-5.69-4.592-6.363"/>
        <path d="M308.1613,292.5558c0-12.116,8.936-21.724,21.909-21.724,10.344,0,21.85,7.099,21.85,22.092,0,14.933-11.568,21.849-21.85,21.849-10.401,0-21.909-6.856-21.909-22.217M345.7373,297.7598c-.918-13.038-8.259-25.338-18.847-25.338-8.325,0-13.037,6.487-12.364,16.402.856,12.24,8.628,24.052,19.035,24.052,9.364,0,12.728-7.039,12.176-15.116"/>
        <path d="M376.2927,313.3052c2.021-.674,2.449-2.512,2.449-6.916v-27.297c0-4.405-.428-6.242-2.449-6.915v-.858h11.385v.858c-2.02.673-2.449,2.51-2.449,6.915v14.383l14.871-15.24c3.917-3.977,4.102-5.875,1.468-6.304v-.612h9.61v.858c-2.447.673-5.262,1.532-8.385,4.712l-13.035,13.342,1.531-.061c9.18-.489,10.953,2.632,14.749,12.361,3.61,9.303,4.469,10.774,6.425,10.774.306,0,.55,0,.918-.062v.918c-1.406.368-2.874.427-4.16.427-5.079,0-5.753-1.468-9.426-10.463-3.855-9.486-4.468-12.854-9.977-12.854h-1.1l-3.489,3.611v11.507c0,4.404.429,6.242,2.449,6.916v.856h-11.385v-.856Z"/>
        <path d="M429.9811,313.305c1.837-.674,3.488-2.264,5.141-6.366l11.445-28.399c.488-1.221.427-2.202-.122-3.304l-.797-1.712,5.997-2.692,15.181,36.169c1.712,4.04,3.303,5.63,4.71,6.304v.856h-11.139v-.856c2.019-.674,1.163-2.264-.549-6.304l-3.674-8.814h-16.341l-3.548,8.752c-1.653,4.102-1.287,5.875.796,6.366v.856h-7.1v-.856ZM455.7471,297.209l-7.894-18.911-7.651,18.911h15.545Z"/>
        <path d="M495.6016,313.3052c2.019-.674,2.449-2.512,2.449-6.916v-33.967h-1.899c-5.447,0-8.201,1.529-10.464,6.425l-.736-.123.368-7.405h31.885l.368,7.405-.737.123c-2.262-4.896-5.016-6.425-10.463-6.425h-1.775v33.967c0,4.404.429,6.242,2.449,6.916v.856h-11.445v-.856Z"/>
        <path d="M539.6172,313.3052c2.02-.674,2.446-2.512,2.446-6.916v-27.297c0-4.405-.426-6.242-2.446-6.915v-.858h29.558l.43,6.794-.796.184c-2.265-4.283-5.019-5.875-11.078-5.875h-9.178v17.748h4.955c7.468,0,9.61-1.469,10.589-4.652h.856v10.405h-.856c-.979-3.184-3.121-4.652-10.589-4.652h-4.955v15.118c0,4.404.429,6.242,2.449,6.916v.856h-11.385v-.856Z"/>
        <path d="M592.3228,313.3052c2.02-.674,2.449-2.512,2.449-6.916v-27.297c0-4.405-.429-6.242-2.449-6.915v-.858h11.384v.858c-2.02.673-2.448,2.51-2.448,6.915v27.297c0,4.404.428,6.242,2.448,6.916v.856h-11.384v-.856Z"/>
        <path d="M649.739,304.1244c-3.67-8.936-3.977-11.934-9.365-11.934h-3.611v14.199c0,4.404.429,6.241,2.449,6.916v.856h-11.385v-.856c2.021-.675,2.449-2.512,2.449-6.916v-27.296c0-4.406-.428-6.244-2.449-6.917v-.857h12.854c13.34,0,16.095,4.835,16.095,9.792,0,5.631-3.854,9.855-11.995,10.833,6.916.796,8.262,3.673,11.507,11.811,3.243,8.141,3.918,9.609,6.179,9.609.3069,0,.612,0,.9189-.059v.856c-1.407.367-3.366.427-4.404.427-5.08,0-6.304-3.304-9.243-10.464M650.291,282.5824c0-4.958-3.185-10.282-10.834-10.282-.857,0-1.775.059-2.694.183v18.727h3.918c6.978,0,9.61-3.917,9.61-8.628"/>
        <path d="M683.718,313.3052c2.02-.674,2.446-2.512,2.446-6.916v-23.625c0-7.465-1.344-9.608-4.16-10.587v-.858h9.182l15.115,25.093,14.384-25.093h8.689v.858c-2.817.979-4.16,3.122-4.16,10.587v23.625c0,4.404.425,6.242,2.445,6.916v.856h-11.381v-.856c2.021-.674,2.445-2.512,2.445-6.916v-29.622l-14.686,25.764h-1.4059l-15.362-25.212v25.397c0,7.465,1.468,9.608,4.6479,10.589v.856h-8.199v-.856Z"/>
        <path d="M749.3406,313.305c1.836-.674,3.492-2.264,5.141-6.366l11.445-28.399c.49-1.221.431-2.202-.122-3.304l-.796-1.712,5.9969-2.692,15.1801,36.169c1.711,4.04,3.304,5.63,4.711,6.304v.856h-11.14v-.856c2.022-.674,1.166-2.264-.549-6.304l-3.673-8.814h-16.3391l-3.551,8.752c-1.651,4.102-1.285,5.875.798,6.366v.856h-7.102v-.856ZM775.1086,297.209l-7.895-18.911-7.651,18.911h15.546Z"/>
      </g>
      <polygon points="0 162.097 13.883 162.097 13.883 36.133 135.268 166.979 135.268 4.253 121.384 4.253 121.384 131.603 0 .756 0 162.097"/>
      <rect x="299.094" y="4.252" width="13.884" height="158.305"/>
      <polygon points="768.2184 162.556 783.5234 162.556 844.0344 32.23 907.9274 162.556 923.3854 162.556 843.6944 .001 768.2184 162.556"/>
      <rect x="476.803" y="148.674" width="13.884" height="13.884"/>
      <polygon points="556.6005 108.4552 476.8045 .4352 476.8045 23.8002 490.6885 42.5942 556.7235 131.9902 621.0205 42.9782 621.0205 162.5562 634.9045 162.5562 634.9045 .0492 556.6005 108.4552"/>
    </g>
  </g>
</svg> 